<?xml version="1.0" encoding="UTF-8" standalone="no"?>
<svg
   viewBox="0 0 72 72"
   version="1.1"
   id="svg1751"
   sodipodi:docname="rssfeed.svg"
   inkscape:version="1.1.1 (c3084ef, 2021-09-22)"
   xmlns:inkscape="http://www.inkscape.org/namespaces/inkscape"
   xmlns:sodipodi="http://sodipodi.sourceforge.net/DTD/sodipodi-0.dtd"
   xmlns="http://www.w3.org/2000/svg"
   xmlns:svg="http://www.w3.org/2000/svg"
   xmlns:rdf="http://www.w3.org/1999/02/22-rdf-syntax-ns#"
   xmlns:cc="http://creativecommons.org/ns#"
   xmlns:dc="http://purl.org/dc/elements/1.1/">
  <sodipodi:namedview
     id="namedview1753"
     pagecolor="#ffffff"
     bordercolor="#666666"
     borderopacity="1.0"
     inkscape:pageshadow="2"
     inkscape:pageopacity="0.0"
     inkscape:pagecheckerboard="0"
     showgrid="false"
     inkscape:zoom="5.0481204"
     inkscape:cx="40.014893"
     inkscape:cy="37.142537"
     inkscape:window-width="1312"
     inkscape:window-height="833"
     inkscape:window-x="200"
     inkscape:window-y="38"
     inkscape:window-maximized="0"
     inkscape:current-layer="svg1751" />
  <!-- Generator: Sketch 49.2 (51160) - http://www.bohemiancoding.com/sketch -->
  <title
     id="title1739">RSS</title>
  <desc
     id="desc1741">Created with Sketch.</desc>
  <defs
     id="defs1743" />
  <path
     d="m 8,72 h 56 c 4.418278,0 8,-3.581722 8,-8 V 8 C 72,3.581722 68.418278,0 64,0 H 8 C 3.581722,0 0,3.581722 0,8 v 56 c 0,4.418278 3.581722,8 8,8 z"
     id="Rounded"
     fill="#000000"
     style="fill-rule:evenodd;stroke:none;stroke-width:1;fill:#343a2e;fill-opacity:1" />
  <path
     d="m 14.000471,51.714286 c 0,-3.471286 2.814399,-6.285715 6.285647,-6.285715 3.471249,0 6.285647,2.814429 6.285647,6.285715 C 26.571765,55.185571 23.757367,58 20.286118,58 16.81487,58 14.000471,55.185571 14.000471,51.714286 Z M 58,58 h -8.380339 c 0,-19.641286 -15.978114,-35.619571 -35.61919,-35.619571 V 14 C 38.261497,14 58,33.738714 58,58 Z M 43.333543,58 H 34.953204 C 34.953204,46.446857 25.553019,37.048143 14,37.048143 v -8.382 c 16.174541,0 29.333543,13.159143 29.333543,29.333857 z"
     fill="#ffffff"
     id="path1746"
     style="fill-rule:evenodd;stroke:none;stroke-width:1" />
  <metadata
     id="metadata1832">
    <rdf:RDF>
      <cc:Work
         rdf:about="">
        <dc:title>RSS</dc:title>
      </cc:Work>
    </rdf:RDF>
  </metadata>
</svg>
