<?xml version="1.0" encoding="UTF-8" standalone="no"?>
<svg
   viewBox="0 0 72 72"
   version="1.1"
   id="svg1585"
   sodipodi:docname="linkedin.svg"
   inkscape:version="1.1.1 (c3084ef, 2021-09-22)"
   xmlns:inkscape="http://www.inkscape.org/namespaces/inkscape"
   xmlns:sodipodi="http://sodipodi.sourceforge.net/DTD/sodipodi-0.dtd"
   xmlns="http://www.w3.org/2000/svg"
   xmlns:svg="http://www.w3.org/2000/svg"
   xmlns:rdf="http://www.w3.org/1999/02/22-rdf-syntax-ns#"
   xmlns:cc="http://creativecommons.org/ns#"
   xmlns:dc="http://purl.org/dc/elements/1.1/">
  <sodipodi:namedview
     id="namedview1587"
     pagecolor="#ffffff"
     bordercolor="#666666"
     borderopacity="1.0"
     inkscape:pageshadow="2"
     inkscape:pageopacity="0.0"
     inkscape:pagecheckerboard="0"
     showgrid="false"
     inkscape:zoom="4.7106995"
     inkscape:cx="40.12143"
     inkscape:cy="46.596052"
     inkscape:window-width="1312"
     inkscape:window-height="833"
     inkscape:window-x="200"
     inkscape:window-y="38"
     inkscape:window-maximized="0"
     inkscape:current-layer="svg1585" />
  <!-- Generator: Sketch 49.2 (51160) - http://www.bohemiancoding.com/sketch -->
  <title
     id="title1573">Linkedin</title>
  <desc
     id="desc1575">Created with Sketch.</desc>
  <defs
     id="defs1577" />
  <path
     d="m 8,72 h 56 c 4.418278,0 8,-3.581722 8,-8 V 8 C 72,3.581722 68.418278,0 64,0 H 8 C 3.581722,0 0,3.581722 0,8 v 56 c 0,4.418278 3.581722,8 8,8 z"
     id="Rounded"
     fill="#000000"
     style="fill-rule:evenodd;stroke:none;stroke-width:1;fill:#343a2e;fill-opacity:1" />
  <path
     d="M 62,62 H 51.315625 V 43.802115 c 0,-4.989361 -1.895833,-7.777583 -5.844922,-7.777583 -4.296094,0 -6.540625,2.901578 -6.540625,7.777583 V 62 H 28.633333 V 27.333333 h 10.296745 v 4.669595 c 0,0 3.095964,-5.728713 10.452474,-5.728713 C 56.735677,26.274215 62,30.764471 62,40.051212 Z M 16.349349,22.794013 C 12.842057,22.794013 10,19.929657 10,16.397007 10,12.864357 12.842057,10 16.349349,10 c 3.507292,0 6.347656,2.864357 6.347656,6.397007 0,3.53265 -2.840364,6.397006 -6.347656,6.397006 z M 11.032552,62 H 21.769401 V 27.333333 H 11.032552 Z"
     fill="#ffffff"
     id="path1580"
     style="fill-rule:evenodd;stroke:none;stroke-width:1" />
  <metadata
     id="metadata1666">
    <rdf:RDF>
      <cc:Work
         rdf:about="">
        <dc:title>Linkedin</dc:title>
      </cc:Work>
    </rdf:RDF>
  </metadata>
</svg>
