<?xml version="1.0" encoding="UTF-8" standalone="no"?>
<svg
   viewBox="0 0 72 72"
   version="1.1"
   id="svg1881"
   xmlns="http://www.w3.org/2000/svg"
   xmlns:svg="http://www.w3.org/2000/svg"
   xmlns:rdf="http://www.w3.org/1999/02/22-rdf-syntax-ns#"
   xmlns:cc="http://creativecommons.org/ns#"
   xmlns:dc="http://purl.org/dc/elements/1.1/">
  <!-- Generator: Sketch 49.2 (51160) - http://www.bohemiancoding.com/sketch -->
  <title
     id="title1869">Twitter</title>
  <desc
     id="desc1871">Created with Sketch.</desc>
  <defs
     id="defs1873" />
  <path
     d="m 8,72 h 56 c 4.418278,0 8,-3.581722 8,-8 V 8 C 72,3.581722 68.418278,0 64,0 H 8 C 3.581722,0 0,3.581722 0,8 v 56 c 0,4.418278 3.581722,8 8,8 z"
     id="Rounded"
     fill="#000000"
     style="fill-rule:evenodd;stroke:none;stroke-width:1;fill:#50abf1;fill-opacity:1" />
  <path
     d="m 55.08654,25.714875 c 0.621554,13.851099 -9.70662,29.294413 -27.991155,29.294413 -5.560961,0 -10.737431,-1.631137 -15.095385,-4.425181 5.223647,0.615657 10.439039,-0.83267 14.5788,-4.078431 -4.308418,-0.07902 -7.945747,-2.926139 -9.19829,-6.838272 1.54268,0.294855 3.060593,0.208757 4.44641,-0.167478 -4.736547,-0.95297 -8.004717,-5.218929 -7.89857,-9.780923 1.328026,0.737137 2.847118,1.180599 4.461743,1.230134 -4.38626,-2.929677 -5.628188,-8.720625 -3.047619,-13.146985 4.855668,5.958426 12.111455,9.878815 20.296624,10.290432 C 34.203745,21.931299 38.876603,16 45.232493,16 c 2.832965,0 5.392304,1.194752 7.18738,3.108949 2.243255,-0.441103 4.350877,-1.260799 6.25328,-2.389503 -0.734778,2.299867 -2.296329,4.230576 -4.329647,5.447737 C 56.335545,21.930119 58.23323,21.40056 60,20.617426 c -1.31977,1.975527 -2.989827,3.709273 -4.91346,5.097449"
     fill="#ffffff"
     id="path1876"
     style="fill-rule:evenodd;stroke:none;stroke-width:1" />
  <metadata
     id="metadata1942">
    <rdf:RDF>
      <cc:Work
         rdf:about="">
        <dc:title>Twitter</dc:title>
      </cc:Work>
    </rdf:RDF>
  </metadata>
</svg>
